<svg width="623" height="716" viewBox="0 0 623 716" fill="none" xmlns="http://www.w3.org/2000/svg">
<path d="M141.17 490.018L70.0762 531.046C36.5451 550.412 9.41882 537.225 9.41882 498.401V201.048C9.41882 143.97 18.4232 130.538 45.3611 114.997L213.017 18.2469C246.548 -1.0994 273.655 12.087 273.655 50.8926V139.166" fill="#34D399"/>
<path d="M141.17 490.018L70.0762 531.046C36.5451 550.412 9.41882 537.225 9.41882 498.401V201.048C9.41882 143.97 18.4232 130.538 45.3611 114.997L213.017 18.2469C246.548 -1.0994 273.655 12.087 273.655 50.8926V139.166" stroke="#022C22" stroke-width="18.8377" stroke-linecap="round" stroke-linejoin="round"/>
<path d="M282.209 564.54L201.829 610.918C168.297 630.283 141.171 617.097 141.171 578.272V280.92C141.171 223.841 150.176 210.41 177.095 194.869L344.75 98.1186C378.281 78.7723 405.407 91.9587 405.407 130.764V219" fill="#FBBF24"/>
<path d="M282.209 564.54L201.829 610.918C168.297 630.283 141.171 617.097 141.171 578.272V280.92C141.171 223.841 150.176 210.41 177.095 194.869L344.75 98.1186C378.281 78.7723 405.407 91.9587 405.407 130.764V219" stroke="#451A03" stroke-width="18.8377" stroke-linecap="round" stroke-linejoin="round"/>
<path d="M592.594 593.022L415.407 695.254C398.321 705.107 377.411 715.543 348.891 692.806C297.916 652.191 272.975 556.684 272.975 482.012V360.791C272.975 303.713 281.961 290.282 308.88 274.741L476.535 177.99C510.066 158.644 537.193 171.812 537.193 210.636V316.485C537.193 383.284 556.859 467.13 598.019 512.698C620.323 537.395 618.496 578.065 592.594 593.022Z" fill="#FB7185" stroke="#4C0519" stroke-width="18.8377" stroke-linecap="round" stroke-linejoin="round"/>
</svg>
